<svg width="223" height="46" viewBox="0 0 223 46" fill="none" xmlns="http://www.w3.org/2000/svg">
<path d="M4.13145 6.19727V39.2489" stroke="#3F97E7" stroke-width="3.09859" stroke-linecap="round"/>
<path d="M20.6573 12.3943L20.6573 39.2488" stroke="#3F97E7" stroke-width="3.09859" stroke-linecap="round"/>
<path d="M28.9202 6.19727L12.3944 6.19726" stroke="#3F97E7" stroke-width="3.09859" stroke-linecap="round"/>
<path d="M37.1831 6.19727V39.2489" stroke="#3F97E7" stroke-width="3.09859" stroke-linecap="round"/>
<path d="M43.3803 22.7229H45.446C48.2982 22.7229 50.6103 25.035 50.6103 27.8872V39.2487" stroke="#3F97E7" stroke-width="3.09859" stroke-linecap="round"/>
<path d="M58.8732 22.7229L58.8732 39.2487" stroke="#3F97E7" stroke-width="3.09859" stroke-linecap="round"/>
<path d="M67.1362 22.7229L67.1362 39.2487" stroke="#3F97E7" stroke-width="3.09859" stroke-linecap="round"/>
<path d="M73.3333 22.7229H75.3991C78.2512 22.7229 80.5634 25.035 80.5634 27.8872V39.2487" stroke="#3F97E7" stroke-width="3.09859" stroke-linecap="round"/>
<path d="M88.8263 6.19727V39.2489" stroke="#3F97E7" stroke-width="3.09859" stroke-linecap="round"/>
<path d="M101.737 22.7229L96.6275 27.6777C94.4022 29.8355 94.5658 33.4537 96.9767 35.4019L101.737 39.2487" stroke="#3F97E7" stroke-width="3.09859" stroke-linecap="round"/>
<path d="M118.263 6.19727V39.2489" stroke="#3F97E7" stroke-width="3.09859" stroke-linecap="round"/>
<path d="M124.46 22.7229H126.526C129.378 22.7229 131.69 25.035 131.69 27.8872V34.0844C131.69 36.9366 129.378 39.2487 126.526 39.2487H124.46" stroke="#3F97E7" stroke-width="3.09859" stroke-linecap="round"/>
<path d="M148.216 22.7229H145.117C142.265 22.7229 139.953 25.035 139.953 27.8872V34.0844C139.953 36.9366 142.265 39.2487 145.117 39.2487H148.216C151.068 39.2487 153.38 36.9366 153.38 34.0844V27.8872C153.38 25.035 151.068 22.7229 148.216 22.7229Z" stroke="#3F97E7" stroke-width="3.09859" stroke-linecap="round"/>
<path d="M169.906 22.7229H166.808C163.955 22.7229 161.643 25.035 161.643 27.8872V34.0844C161.643 36.9366 163.955 39.2487 166.808 39.2487H169.906C172.758 39.2487 175.07 36.9366 175.07 34.0844V27.8872C175.07 25.035 172.758 22.7229 169.906 22.7229Z" stroke="#3F97E7" stroke-width="3.09859" stroke-linecap="round"/>
<path d="M183.333 6.19727V39.2489" stroke="#3F97E7" stroke-width="3.09859" stroke-linecap="round"/>
<path d="M196.244 22.7229L191.134 27.6777C188.909 29.8355 189.073 33.4537 191.484 35.4019L196.244 39.2487" stroke="#3F97E7" stroke-width="3.09859" stroke-linecap="round"/>
<path d="M217.934 22.7229H208.638C206.357 22.7229 204.507 24.5726 204.507 26.8544V26.8544C204.507 29.1361 206.357 30.9858 208.639 30.9858H213.803C216.085 30.9858 217.934 32.8355 217.934 35.1173V35.1173C217.934 37.399 216.085 39.2487 213.803 39.2487H204.507" stroke="#3F97E7" stroke-width="3.09859" stroke-linecap="round" stroke-linejoin="round"/>
</svg>
