<svg width="84" height="94" viewBox="0 0 84 94" fill="none" xmlns="http://www.w3.org/2000/svg">
<ellipse cx="42" cy="12" rx="40" ry="10" stroke="white" stroke-width="3"/>
<path d="M82 12V82C82 87.5228 64.0914 92 42 92C19.9086 92 2 87.5228 2 82V12" stroke="white" stroke-width="3"/>
<circle cx="42" cy="57" r="15" stroke="white" stroke-width="2"/>
<circle cx="42" cy="57" r="7" stroke="white" stroke-width="2"/>
<path d="M38 43V36C38 35.4477 38.4477 35 39 35H45C45.5523 35 46 35.4477 46 36V43" stroke="white" stroke-width="2"/>
<path d="M38 71V78C38 78.5523 38.4477 79 39 79H45C45.5523 79 46 78.5523 46 78V71" stroke="white" stroke-width="2"/>
<path d="M27.8757 53.4641L21.8135 49.9641C21.3352 49.688 21.1713 49.0764 21.4474 48.5981L24.4474 43.4019C24.7236 42.9236 25.3352 42.7598 25.8135 43.0359L31.8757 46.5359" stroke="white" stroke-width="2"/>
<path d="M52.1243 67.4641L58.1865 70.9641C58.6648 71.2403 59.2764 71.0764 59.5526 70.5981L62.5526 65.4019C62.8287 64.9236 62.6648 64.3121 62.1865 64.0359L56.1243 60.5359" stroke="white" stroke-width="2"/>
<path d="M52.1243 46.5359L58.1865 43.0359C58.6648 42.7597 59.2764 42.9236 59.5526 43.4019L62.5526 48.5981C62.8287 49.0764 62.6648 49.6879 62.1865 49.9641L56.1243 53.4641" stroke="white" stroke-width="2"/>
<path d="M27.8757 60.5359L21.8135 64.0359C21.3352 64.312 21.1713 64.9236 21.4474 65.4019L24.4474 70.5981C24.7236 71.0764 25.3352 71.2402 25.8135 70.9641L31.8757 67.4641" stroke="white" stroke-width="2"/>
</svg>
