<svg width="95" height="90" viewBox="0 0 95 90" fill="none" xmlns="http://www.w3.org/2000/svg">
<path d="M76.122 28.8462C76.122 43.9433 63.8319 56.1923 48.6585 56.1923C33.4852 56.1923 21.1951 43.9433 21.1951 28.8462C21.1951 13.749 33.4852 1.5 48.6585 1.5C63.8319 1.5 76.122 13.749 76.122 28.8462Z" stroke="white" stroke-width="3"/>
<path d="M56.4268 61.1538C56.4268 76.251 44.1368 88.5 28.9634 88.5C13.79 88.5 1.5 76.251 1.5 61.1538C1.5 46.0567 13.79 33.8077 28.9634 33.8077C44.1368 33.8077 56.4268 46.0567 56.4268 61.1538Z" stroke="white" stroke-width="3"/>
<path d="M93.5 61.1538C93.5 76.251 81.21 88.5 66.0366 88.5C50.8632 88.5 38.5732 76.251 38.5732 61.1538C38.5732 46.0567 50.8632 33.8077 66.0366 33.8077C81.21 33.8077 93.5 46.0567 93.5 61.1538Z" stroke="white" stroke-width="3"/>
</svg>
