<svg width="95" height="100" viewBox="0 0 95 100" fill="none" xmlns="http://www.w3.org/2000/svg">
<rect x="16.5" y="71.5" width="77" height="27" rx="3.5" stroke="white" stroke-width="3" stroke-linejoin="round"/>
<circle cx="28" cy="85" r="5" stroke="white" stroke-width="2"/>
<circle cx="43" cy="82" r="2" fill="white" stroke="white" stroke-width="2"/>
<circle cx="55" cy="82" r="2" fill="white" stroke="white" stroke-width="2"/>
<circle cx="67" cy="82" r="2" fill="white" stroke="white" stroke-width="2"/>
<circle cx="82" cy="85" r="5" stroke="white" stroke-width="2"/>
<rect x="40.5" y="87.5" width="17" height="3" rx="1.5" fill="white" stroke="white"/>
<rect x="64.5" y="87.5" width="5" height="3" rx="1.5" fill="white" stroke="white"/>
<path d="M21 24C21 22.3431 22.3431 21 24 21C25.6569 21 27 22.3431 27 24V71H21V24Z" stroke="white" stroke-width="2"/>
<path d="M85 51C85 49.8954 85.8954 49 87 49C88.1046 49 89 49.8954 89 51V71H85V51Z" stroke="white" stroke-width="2"/>
<path d="M18.3432 29.6569C17.2243 28.538 16.4624 27.1126 16.1537 25.5607C15.845 24.0089 16.0035 22.4003 16.609 20.9385C17.2145 19.4767 18.2399 18.2273 19.5555 17.3482C20.871 16.4692 22.4178 16 24 16C25.5823 16 27.129 16.4692 28.4446 17.3482C29.7602 18.2273 30.7855 19.4767 31.391 20.9385C31.9965 22.4003 32.155 24.0089 31.8463 25.5607C31.5376 27.1126 30.7757 28.538 29.6569 29.6569" stroke="white" stroke-width="2" stroke-linecap="round"/>
<path d="M30.5 35.2583C32.9783 33.8275 34.9153 31.6188 36.0104 28.9749C37.1056 26.331 37.2977 23.3996 36.557 20.6354C35.8164 17.8711 34.1843 15.4285 31.9139 13.6864C29.6435 11.9443 26.8617 11 24 11C21.1382 11 18.3565 11.9443 16.0861 13.6864C13.8157 15.4285 12.1836 17.8711 11.443 20.6354C10.7023 23.3996 10.8944 26.331 11.9896 28.9749C13.0847 31.6188 15.0216 33.8275 17.5 35.2583" stroke="white" stroke-width="2" stroke-linecap="round"/>
<path d="M31.3796 41.5084C35.4302 39.8011 38.7636 36.7421 40.8117 32.8526C42.8598 28.9631 43.4959 24.4838 42.6116 20.1779C41.7274 15.8721 39.3774 12.006 35.9623 9.23845C32.5471 6.47091 28.278 4.97316 23.8823 5.00039C19.4867 5.02762 15.2364 6.57815 11.8558 9.38778C8.47517 12.1974 6.17334 16.0923 5.34249 20.4088C4.51165 24.7253 5.2032 29.1964 7.29932 33.0602C9.39543 36.924 12.7664 39.9415 16.8379 41.5984" stroke="white" stroke-width="2" stroke-linecap="round"/>
</svg>
