<svg width="44" height="44" viewBox="0 0 44 44" fill="none" xmlns="http://www.w3.org/2000/svg">
<circle cx="22" cy="22" r="20.5" stroke="#E5E5E5" stroke-width="3" stroke-linecap="round" stroke-linejoin="round"/>
<path d="M29.3448 19.5796C29.3448 22.2284 28.2734 25.1044 26.7406 27.3219C25.978 28.4252 25.1252 29.3298 24.2781 29.9495C23.4218 30.5759 22.6408 30.8621 22 30.8621C21.3592 30.8621 20.5782 30.5759 19.7219 29.9495C18.8747 29.3298 18.022 28.4252 17.2594 27.3219C15.7265 25.1044 14.6552 22.2284 14.6552 19.5796C14.6552 16.7362 15.048 14.3628 16.1221 12.7188C17.1389 11.1627 18.8732 10.1035 22 10.1035C25.1267 10.1035 26.8611 11.1627 27.8778 12.7188C28.9519 14.3628 29.3448 16.7362 29.3448 19.5796Z" stroke="#E5E5E5" stroke-width="2" stroke-linecap="round" stroke-linejoin="round"/>
<path d="M18.3334 28.8095V33.5238L7.65222 36.3478" stroke="#E5E5E5" stroke-width="2" stroke-linecap="round" stroke-linejoin="round"/>
<path d="M25.6667 28.8095V33.5238L36.3479 36.3478" stroke="#E5E5E5" stroke-width="2" stroke-linecap="round" stroke-linejoin="round"/>
</svg>
