<svg width="45" height="44" viewBox="0 0 45 44" fill="none" xmlns="http://www.w3.org/2000/svg">
<path d="M41.3572 22C41.3572 33.3193 32.1641 42.5 20.8184 42.5C17.6652 42.5 14.6819 41.7918 12.0159 40.5275C11.9998 40.5199 11.9839 40.5123 11.9682 40.5048C12.3529 40.291 12.8529 40.0439 13.4801 39.744C13.6323 39.6712 13.7904 39.596 13.9535 39.5184C14.7876 39.1218 15.7542 38.662 16.7592 38.1311C21.5572 35.5963 27.8281 31.1223 27.8281 22C27.8281 12.8777 21.5572 8.40365 16.7592 5.86885C15.7542 5.33793 14.7875 4.87819 13.9534 4.48152C13.7903 4.40396 13.6323 4.32881 13.4801 4.25602C12.8529 3.95612 12.3529 3.70904 11.9682 3.49525C11.9839 3.48773 11.9998 3.48013 12.0159 3.47246C14.6819 2.2082 17.6652 1.5 20.8184 1.5C32.1641 1.5 41.3572 10.6807 41.3572 22ZM11.1987 40.0404C11.1989 40.0404 11.2014 40.0429 11.2057 40.048C11.2006 40.0429 11.1985 40.0404 11.1987 40.0404ZM11.1987 3.95963C11.1985 3.95961 11.2006 3.95706 11.2057 3.95204C11.2014 3.95713 11.1989 3.95964 11.1987 3.95963Z" stroke="#E5E5E5" stroke-width="3" stroke-linecap="round" stroke-linejoin="round"/>
</svg>
