<svg width="215" height="44" viewBox="0 0 215 44" fill="none" xmlns="http://www.w3.org/2000/svg">
<path d="M4 6V38" stroke="#3F97E7" stroke-width="3" stroke-linecap="round"/>
<path d="M20 12L20 38" stroke="#3F97E7" stroke-width="3" stroke-linecap="round"/>
<path d="M28 6L12 6" stroke="#3F97E7" stroke-width="3" stroke-linecap="round"/>
<path d="M36 6V38" stroke="#3F97E7" stroke-width="3" stroke-linecap="round"/>
<path d="M42 22H44C46.7614 22 49 24.2386 49 27V38" stroke="#3F97E7" stroke-width="3" stroke-linecap="round"/>
<path d="M57 22L57 38" stroke="#3F97E7" stroke-width="3" stroke-linecap="round"/>
<path d="M65 22L65 38" stroke="#3F97E7" stroke-width="3" stroke-linecap="round"/>
<path d="M71 22H73C75.7614 22 78 24.2386 78 27V38" stroke="#3F97E7" stroke-width="3" stroke-linecap="round"/>
<path d="M86 6V38" stroke="#3F97E7" stroke-width="3" stroke-linecap="round"/>
<path d="M98.5 22L93.5529 26.7971C91.3985 28.8863 91.5569 32.3894 93.8911 34.2756L98.5 38" stroke="#3F97E7" stroke-width="3" stroke-linecap="round"/>
<path d="M114.5 6V38" stroke="#3F97E7" stroke-width="3" stroke-linecap="round"/>
<path d="M120.5 22H122.5C125.261 22 127.5 24.2386 127.5 27V33C127.5 35.7614 125.261 38 122.5 38H120.5" stroke="#3F97E7" stroke-width="3" stroke-linecap="round"/>
<path d="M143.5 22H140.5C137.739 22 135.5 24.2386 135.5 27V33C135.5 35.7614 137.739 38 140.5 38H143.5C146.261 38 148.5 35.7614 148.5 33V27C148.5 24.2386 146.261 22 143.5 22Z" stroke="#3F97E7" stroke-width="3" stroke-linecap="round"/>
<path d="M164.5 22H161.5C158.739 22 156.5 24.2386 156.5 27V33C156.5 35.7614 158.739 38 161.5 38H164.5C167.261 38 169.5 35.7614 169.5 33V27C169.5 24.2386 167.261 22 164.5 22Z" stroke="#3F97E7" stroke-width="3" stroke-linecap="round"/>
<path d="M177.5 6V38" stroke="#3F97E7" stroke-width="3" stroke-linecap="round"/>
<path d="M190 22L185.053 26.7971C182.899 28.8863 183.057 32.3894 185.391 34.2756L190 38" stroke="#3F97E7" stroke-width="3" stroke-linecap="round"/>
<path d="M211 22H202C199.791 22 198 23.7909 198 26V26C198 28.2091 199.791 30 202 30H207C209.209 30 211 31.7909 211 34V34C211 36.2091 209.209 38 207 38H198" stroke="#3F97E7" stroke-width="3" stroke-linecap="round" stroke-linejoin="round"/>
</svg>
