<svg width="45" height="44" viewBox="0 0 45 44" fill="none" xmlns="http://www.w3.org/2000/svg">
<path d="M19.2832 14.9742L22.5714 4.8541L25.8596 14.9742C26.1943 16.0042 27.1542 16.7016 28.2373 16.7016H38.8781L30.2695 22.9562C29.3933 23.5928 29.0266 24.7212 29.3613 25.7513L32.6495 35.8713L24.0409 29.6168C23.1647 28.9802 21.9782 28.9802 21.1019 29.6168L12.4933 35.8713L15.7815 25.7513C16.1162 24.7212 15.7496 23.5928 14.8733 22.9562L13.9917 24.1697L14.8733 22.9562L6.26469 16.7016H16.9056C17.9886 16.7016 18.9485 16.0042 19.2832 14.9742ZM11.2484 36.7758C11.2487 36.7756 11.2491 36.7753 11.2495 36.775L11.2484 36.7758ZM23.0466 3.39173L23.0469 3.39057L22.5714 3.23607L23.0469 3.39057C23.0468 3.39096 23.0467 3.39134 23.0466 3.39173Z" stroke="#E5E5E5" stroke-width="3"/>
</svg>
