<svg width="104" height="104" viewBox="0 0 104 104" fill="none" xmlns="http://www.w3.org/2000/svg">
<path d="M71.2106 101C70.7755 99.0488 69.9053 93.4553 69.9053 86.6911C69.9053 78.2358 81 68.4797 81 52.8699C81 37.2602 77.7368 21 53.5895 21C39.8842 21 32.0526 28.1545 28.7895 35.3089C25.5264 42.4634 27.4666 47.5545 27.4666 52.8699M27.4666 52.8699C25.5263 60.6748 19 66.6742 19 69.7805C19 72.2655 24.0845 72.7963 27.1301 72.3821M27.4666 52.8699C27.4666 57.3761 26.6141 69.9831 27.4843 77.5854C27.8852 81.0884 28.8957 84.5075 29.8647 87.4059C30.708 89.9282 33.4157 91.3526 35.9039 90.4135C39.1202 89.1996 43.0829 87.4101 47.0632 85.0378M58.8106 75.6341C55.4371 79.4164 51.2405 82.5481 47.0632 85.0378M47.0632 85.0378C50.1958 89.4824 50.979 97.5312 50.979 101" stroke="white" stroke-width="3" stroke-linecap="round"/>
<path d="M54 26.5C39 26.5 33 36 33 40.5C33 42.7325 41.7721 45.3638 47.2099 46.2573C48.2238 46.4239 48.9599 47.3035 48.5059 48.2252C48.1948 48.8567 47.7707 49.504 47.3347 50.1066C46.4956 51.2663 47.0568 52.7965 48.463 53.0644L54.4556 54.2058C55.362 54.3785 56.2688 53.9087 56.6506 53.0688L57.6412 50.8894C58.1103 49.8574 59.3488 49.4213 60.2509 50.1077C62.8471 52.083 65.2161 55.3109 67.3579 58.2598C68.2791 59.5282 70.0648 59.8727 71.1046 58.6995C74.6354 54.7157 75 48.1964 75 43.5C75 36 69 26.5 54 26.5Z" stroke="white" stroke-width="2" stroke-linecap="round"/>
</svg>
