<svg width="104" height="104" viewBox="0 0 104 104" fill="none" xmlns="http://www.w3.org/2000/svg">
<g clip-path="url(#clip0_369_1760)">
<path d="M61.7919 100.501C56.2793 101.638 50.6183 101.804 45.0622 101.001C44.3364 100.896 43.7959 100.169 43.9685 99.3329L46.7979 85.6247C46.9585 84.8465 47.7666 84.233 48.7421 84.3333C49.8135 84.4435 50.9004 84.4999 52 84.4999C66.7399 84.4999 79.1118 74.3772 82.5501 60.7064C82.79 59.7523 83.6457 59.202 84.432 59.3184L98.2733 61.3679C99.1181 61.493 99.6153 62.2504 99.4646 62.968C98.3108 68.462 96.2102 73.7215 93.2499 78.5086C89.7786 84.1219 85.1982 88.9677 79.7891 92.7493C74.38 96.5308 68.2559 99.1686 61.7919 100.501Z" stroke="white" stroke-width="3"/>
<path d="M33.2565 97.7317C26.1764 94.765 19.8879 90.1539 14.9216 84.264C9.95535 78.3742 6.47276 71.3971 4.74476 63.9176C4.57968 63.2031 5.06157 62.4359 5.90364 62.294L19.7011 59.9674C20.4852 59.8352 21.3514 60.368 21.6103 61.3167C24.0663 70.3157 30.3996 77.6795 38.6715 81.5485C39.5612 81.9647 39.9391 82.9075 39.6765 83.6575L35.0526 96.8637C34.7704 97.6697 33.9328 98.0151 33.2565 97.7317Z" stroke="white" stroke-width="3"/>
<path d="M15.9484 20.557C24.0853 11.5151 35.3228 5.8608 47.4329 4.71534C51.1536 4.36341 54.9069 4.45125 58.5723 4.94994C59.2999 5.04893 59.8466 5.77234 59.6802 6.61045L56.9598 20.3136C56.8047 21.0948 55.9947 21.7184 55.0068 21.6215C52.2068 21.3469 49.3708 21.4682 46.4336 21.9955C32.1383 24.562 21.8429 36.3957 20.6175 50.1952C20.5305 51.1753 19.772 51.8533 18.9772 51.862L4.98635 52.0155C4.1326 52.0249 3.52229 51.3551 3.55822 50.6225C4.10355 39.5035 8.46226 28.8759 15.9484 20.557Z" stroke="white" stroke-width="3"/>
<path d="M92.0675 25.6713C97.0136 32.9231 99.8887 41.3654 100.413 50.0916C100.457 50.8236 99.854 51.4999 99.0001 51.4999H85.0001C84.2057 51.4999 83.4417 50.8315 83.345 49.8555C82.2661 38.9759 75.655 29.7295 66.3705 24.9618C65.4968 24.5131 65.1539 23.5569 65.4438 22.8173L70.551 9.78986C70.8627 8.99481 71.7124 8.68051 72.3779 8.98863C80.3108 12.6616 87.1213 18.4196 92.0675 25.6713Z" stroke="white" stroke-width="3"/>
</g>
<defs>
<clipPath id="clip0_369_1760">
<rect width="104" height="104" fill="white"/>
</clipPath>
</defs>
</svg>
