<svg width="104" height="104" viewBox="0 0 104 104" fill="none" xmlns="http://www.w3.org/2000/svg">
<path d="M26 81C14.9543 81 6 72.0457 6 61C6 49.9543 14.9543 41 26 41C46 41 58 81 78 81" stroke="white" stroke-width="3" stroke-linecap="round"/>
<path d="M78 79.5C77.1716 79.5 76.5 80.1716 76.5 81C76.5 81.8284 77.1716 82.5 78 82.5V79.5ZM96.5 61C96.5 71.2173 88.2173 79.5 78 79.5V82.5C89.8741 82.5 99.5 72.8741 99.5 61H96.5ZM78 42.5C88.2173 42.5 96.5 50.7827 96.5 61H99.5C99.5 49.1259 89.8741 39.5 78 39.5V42.5ZM26 82.5C31.5276 82.5 36.371 79.7319 40.7424 75.8748C45.1091 72.0219 49.1925 66.9106 53.1713 61.937C57.1925 56.9106 61.1091 52.0219 65.2424 48.3748C69.371 44.7319 73.5276 42.5 78 42.5V39.5C72.4724 39.5 67.629 42.2681 63.2576 46.1252C58.8909 49.9781 54.8075 55.0894 50.8287 60.063C46.8075 65.0894 42.8909 69.9781 38.7576 73.6252C34.629 77.2681 30.4724 79.5 26 79.5V82.5Z" fill="white"/>
<path d="M13.4018 68.741L14.786 76.8528C14.9129 77.597 14.2011 78.2081 13.4847 77.97L5.6759 75.3739C4.9383 75.1287 4.75021 74.1726 5.33997 73.6663L11.7647 68.1505C12.3544 67.6442 13.2711 67.9748 13.4018 68.741Z" fill="white" stroke="white" stroke-linecap="round"/>
<path d="M95.9259 43.7611L96.55 51.9665C96.6073 52.7192 95.8417 53.2615 95.1506 52.9578L87.6169 49.6471C86.9053 49.3344 86.8069 48.3649 87.4412 47.9156L94.3508 43.0209C94.985 42.5716 95.867 42.986 95.9259 43.7611Z" fill="white" stroke="white" stroke-linecap="round"/>
<path d="M55.2696 72.5171L53.7773 64.4245C53.6404 63.6821 54.344 63.0615 55.0635 63.2901L62.9062 65.7817C63.6471 66.017 63.8479 66.9705 63.2649 67.4847L56.9144 73.0858C56.3315 73.5999 55.4105 73.2815 55.2696 72.5171Z" fill="white" stroke="white" stroke-linecap="round"/>
</svg>
