<svg width="104" height="104" viewBox="0 0 104 104" fill="none" xmlns="http://www.w3.org/2000/svg">
<rect x="2" y="12" width="100" height="64" rx="5" stroke="white" stroke-width="3" stroke-linejoin="round"/>
<path d="M59 76V90C68.2276 90 75.875 94.0723 80.6102 97.776C82.5731 99.3114 81.3826 102 78.8905 102H25.1095C22.6174 102 21.4269 99.3114 23.3898 97.776C28.125 94.0723 35.7724 90 45 90V76H59Z" stroke="white" stroke-width="3" stroke-linejoin="round"/>
<rect x="57" y="22" width="35" height="44" rx="4" stroke="white" stroke-width="2"/>
<path d="M62 31H87" stroke="white" stroke-width="2" stroke-linecap="round" stroke-linejoin="round"/>
<path d="M62 40H87" stroke="white" stroke-width="2" stroke-linecap="round" stroke-linejoin="round"/>
<path d="M62 49H87" stroke="white" stroke-width="2" stroke-linecap="round" stroke-linejoin="round"/>
<path d="M62 58H87" stroke="white" stroke-width="2" stroke-linecap="round" stroke-linejoin="round"/>
<path d="M18 65L12 59L18 53" stroke="white" stroke-width="2" stroke-linecap="round" stroke-linejoin="round"/>
<path d="M40 65L46 59L40 53" stroke="white" stroke-width="2" stroke-linecap="round" stroke-linejoin="round"/>
<path d="M26 66L32 52" stroke="white" stroke-width="2" stroke-linecap="round" stroke-linejoin="round"/>
<path fill-rule="evenodd" clip-rule="evenodd" d="M11 26C11 23.2386 13.2386 21 16 21H42C44.7614 21 47 23.2386 47 26V42C47 44.7614 44.7614 47 42 47H16C13.2386 47 11 44.7614 11 42V26ZM23 29C23 31.2091 21.2091 33 19 33C16.7909 33 15 31.2091 15 29C15 26.7909 16.7909 25 19 25C21.2091 25 23 26.7909 23 29ZM16.3734 45H42.716C43.5878 45 44.0421 43.9623 43.4508 43.3217L33.5723 32.62C33.2418 32.2619 32.7012 32.1942 32.2925 32.4599L15.8284 43.1616C14.9938 43.7041 15.3779 45 16.3734 45Z" fill="white"/>
</svg>
