<svg width="104" height="104" viewBox="0 0 104 104" fill="none" xmlns="http://www.w3.org/2000/svg">
<circle cx="26" cy="63" r="15" stroke="white" stroke-width="3"/>
<path d="M11 62.5L7.07089 94C7.02417 94.3266 7 94.6605 7 95C7 98.866 10.134 102 14 102C16.3787 102 18.4804 100.813 19.7453 99L38 72" stroke="white" stroke-width="3"/>
<path d="M18 50.5V44.5C18 44.5 19 42 26 42C33 42 34 44.5 34 44.5V50.5" stroke="white" stroke-width="2"/>
<circle cx="41" cy="79" r="6" stroke="white" stroke-width="2"/>
<path d="M28 54H24V61L17 61V65L24 65V72H28V65H35V61L28 61V54Z" fill="white" stroke="white" stroke-linejoin="round"/>
<circle cx="15" cy="15" r="15" transform="matrix(-1 0 0 1 93 48)" stroke="white" stroke-width="3"/>
<path d="M93 62.5L96.9291 94C96.9758 94.3266 97 94.6605 97 95C97 98.866 93.866 102 90 102C87.6213 102 85.5196 100.813 84.2547 99L66 72" stroke="white" stroke-width="3"/>
<path d="M86 50.5V44.5C86 44.5 85 42 78 42C71 42 70 44.5 70 44.5V50.5" stroke="white" stroke-width="2"/>
<circle cx="6" cy="6" r="6" transform="matrix(-1 0 0 1 69 73)" stroke="white" stroke-width="2"/>
<circle cx="78" cy="57" r="2.5" fill="white" stroke="white"/>
<circle cx="78" cy="69" r="2.5" fill="white" stroke="white"/>
<circle cx="84" cy="63" r="2.5" fill="white" stroke="white"/>
<circle cx="72" cy="63" r="2.5" fill="white" stroke="white"/>
<path d="M34 50H70" stroke="white" stroke-width="3"/>
<path d="M47 79L57 79" stroke="white" stroke-width="2"/>
<path d="M37 35C37 35 42 31 52 31C62 31 67 35 67 35" stroke="white" stroke-width="2" stroke-linecap="round"/>
<path d="M29 28C29 28 36.6667 21 52 21C67.3333 21 75 28 75 28" stroke="white" stroke-width="2.5" stroke-linecap="round"/>
<path d="M21 21C21 21 31.3333 11 52 11C72.6667 11 83 21 83 21" stroke="white" stroke-width="3" stroke-linecap="round"/>
</svg>
