<svg width="125" height="125" viewBox="0 0 125 125" fill="none" xmlns="http://www.w3.org/2000/svg">
<path d="M34.5489 47.927C34.8483 47.0057 36.1517 47.0057 36.4511 47.9271L39.2045 56.4012C39.3384 56.8132 39.7223 57.0922 40.1555 57.0922L49.0658 57.0922C50.0345 57.0922 50.4373 58.3318 49.6536 58.9012L42.445 64.1385C42.0945 64.3932 41.9479 64.8446 42.0818 65.2566L44.8352 73.7308C45.1345 74.6521 44.0801 75.4182 43.2963 74.8488L36.0878 69.6115C35.7373 69.3568 35.2627 69.3568 34.9122 69.6115L27.7037 74.8488C26.9199 75.4182 25.8655 74.6521 26.1648 73.7307L28.9182 65.2566C29.0521 64.8446 28.9055 64.3932 28.555 64.1385L21.3464 58.9012C20.5627 58.3318 20.9655 57.0922 21.9342 57.0922L30.8445 57.0922C31.2777 57.0922 31.6616 56.8132 31.7955 56.4012L34.5489 47.927Z" fill="white"/>
<path d="M88.5489 47.927C88.8483 47.0057 90.1517 47.0057 90.4511 47.9271L93.2045 56.4012C93.3384 56.8132 93.7223 57.0922 94.1555 57.0922L103.066 57.0922C104.035 57.0922 104.437 58.3318 103.654 58.9012L96.445 64.1385C96.0945 64.3932 95.9479 64.8446 96.0818 65.2566L98.8352 73.7308C99.1345 74.6521 98.0801 75.4182 97.2963 74.8488L90.0878 69.6115C89.7373 69.3568 89.2627 69.3568 88.9122 69.6115L81.7037 74.8488C80.9199 75.4182 79.8655 74.6521 80.1648 73.7307L82.9182 65.2566C83.0521 64.8446 82.9055 64.3932 82.555 64.1385L75.3464 58.9012C74.5627 58.3318 74.9655 57.0922 75.9342 57.0922L84.8445 57.0922C85.2777 57.0922 85.6616 56.8132 85.7955 56.4012L88.5489 47.927Z" fill="white"/>
</svg>
