<svg width="125" height="125" viewBox="0 0 125 125" fill="none" xmlns="http://www.w3.org/2000/svg">
<path d="M61.5489 19.927C61.8483 19.0057 63.1517 19.0057 63.4511 19.9271L66.2045 28.4012C66.3384 28.8132 66.7223 29.0922 67.1555 29.0922L76.0658 29.0922C77.0345 29.0922 77.4373 30.3318 76.6536 30.9012L69.445 36.1385C69.0945 36.3932 68.9479 36.8446 69.0818 37.2566L71.8352 45.7308C72.1345 46.6521 71.0801 47.4182 70.2963 46.8488L63.0878 41.6115C62.7373 41.3568 62.2627 41.3568 61.9122 41.6115L54.7037 46.8488C53.9199 47.4182 52.8655 46.6521 53.1648 45.7307L55.9182 37.2566C56.0521 36.8446 55.9055 36.3932 55.555 36.1385L48.3464 30.9012C47.5627 30.3318 47.9655 29.0922 48.9342 29.0922L57.8445 29.0922C58.2777 29.0922 58.6616 28.8132 58.7955 28.4012L61.5489 19.927Z" fill="white"/>
<path d="M34.5489 65.927C34.8483 65.0057 36.1517 65.0057 36.4511 65.9271L39.2045 74.4012C39.3384 74.8132 39.7223 75.0922 40.1555 75.0922L49.0658 75.0922C50.0345 75.0922 50.4373 76.3318 49.6536 76.9012L42.445 82.1385C42.0945 82.3932 41.9479 82.8446 42.0818 83.2566L44.8352 91.7308C45.1345 92.6521 44.0801 93.4182 43.2963 92.8488L36.0878 87.6115C35.7373 87.3568 35.2627 87.3568 34.9122 87.6115L27.7037 92.8488C26.9199 93.4182 25.8655 92.6521 26.1648 91.7307L28.9182 83.2566C29.0521 82.8446 28.9055 82.3932 28.555 82.1385L21.3464 76.9012C20.5627 76.3318 20.9655 75.0922 21.9342 75.0922L30.8445 75.0922C31.2777 75.0922 31.6616 74.8132 31.7955 74.4012L34.5489 65.927Z" fill="white"/>
<path d="M88.5489 65.927C88.8483 65.0057 90.1517 65.0057 90.4511 65.9271L93.2045 74.4012C93.3384 74.8132 93.7223 75.0922 94.1555 75.0922L103.066 75.0922C104.035 75.0922 104.437 76.3318 103.654 76.9012L96.445 82.1385C96.0945 82.3932 95.9479 82.8446 96.0818 83.2566L98.8352 91.7308C99.1345 92.6521 98.0801 93.4182 97.2963 92.8488L90.0878 87.6115C89.7373 87.3568 89.2627 87.3568 88.9122 87.6115L81.7037 92.8488C80.9199 93.4182 79.8655 92.6521 80.1648 91.7307L82.9182 83.2566C83.0521 82.8446 82.9055 82.3932 82.555 82.1385L75.3464 76.9012C74.5627 76.3318 74.9655 75.0922 75.9342 75.0922L84.8445 75.0922C85.2777 75.0922 85.6616 74.8132 85.7955 74.4012L88.5489 65.927Z" fill="white"/>
</svg>
