<svg width="104" height="104" viewBox="0 0 104 104" fill="none" xmlns="http://www.w3.org/2000/svg">
<g clip-path="url(#clip0_369_1835)">
<rect x="13.5203" y="74.7701" width="77" height="27" rx="3.5" stroke="white" stroke-width="3" stroke-linejoin="round"/>
<circle cx="25.0203" cy="88.2701" r="5" stroke="white" stroke-width="2"/>
<circle cx="40.02" cy="85.2701" r="2" fill="white" stroke="white" stroke-width="2"/>
<circle cx="52.02" cy="85.2701" r="2" fill="white" stroke="white" stroke-width="2"/>
<circle cx="64.02" cy="85.2701" r="2" fill="white" stroke="white" stroke-width="2"/>
<circle cx="79.02" cy="88.2701" r="5" stroke="white" stroke-width="2"/>
<rect x="37.52" y="90.7701" width="17" height="3" rx="1.5" fill="white" stroke="white"/>
<rect x="61.52" y="90.7701" width="5" height="3" rx="1.5" fill="white" stroke="white"/>
<path d="M24.0203 27.2701V74.2701H18.0203V27.2701C18.0203 25.6133 19.3634 24.2701 21.0203 24.2701C22.6771 24.2701 24.0203 25.6133 24.0203 27.2701Z" stroke="white" stroke-width="2"/>
<path d="M86.02 54.2701V74.2701H82.02V54.2701C82.02 53.1656 82.9155 52.2701 84.02 52.2701C85.1246 52.2701 86.02 53.1656 86.02 54.2701Z" stroke="white" stroke-width="2"/>
<path d="M15.3632 32.927C14.2444 31.8082 13.4824 30.3827 13.1737 28.8309C12.8651 27.279 13.0235 25.6705 13.629 24.2087C14.2345 22.7469 15.2599 21.4974 16.5755 20.6184C17.8911 19.7393 19.4378 19.2701 21.02 19.2701C22.6023 19.2701 24.149 19.7393 25.4646 20.6184C26.7802 21.4974 27.8056 22.7469 28.4111 24.2087C29.0166 25.6705 29.175 27.279 28.8663 28.8309C28.5576 30.3827 27.7957 31.8082 26.6769 32.927" stroke="white" stroke-width="2" stroke-linecap="round"/>
<path d="M27.5203 38.5285C29.9986 37.0976 31.9355 34.8889 33.0307 32.245C34.1258 29.6011 34.318 26.6697 33.5773 23.9055C32.8366 21.1413 31.2045 18.6987 28.9342 16.9565C26.6638 15.2144 23.882 14.2701 21.0203 14.2701C18.1585 14.2701 15.3767 15.2144 13.1064 16.9565C10.836 18.6987 9.20389 21.1413 8.46322 23.9055C7.72254 26.6697 7.91468 29.6011 9.00982 32.245C10.105 34.8889 12.0419 37.0976 14.5203 38.5285" stroke="white" stroke-width="2" stroke-linecap="round"/>
<path d="M28.3996 44.7785C32.4503 43.0712 35.7836 40.0122 37.8317 36.1227C39.8798 32.2333 40.5159 27.754 39.6316 23.4481C38.7474 19.1422 36.3975 15.2761 32.9823 12.5086C29.5671 9.74106 25.298 8.24331 20.9023 8.27054C16.5067 8.29776 12.2564 9.84829 8.87582 12.6579C5.49519 15.4675 3.19336 19.3624 2.36251 23.679C1.53167 27.9955 2.22322 32.4665 4.31934 36.3303C6.41545 40.1941 9.78644 43.2116 13.8579 44.8686" stroke="white" stroke-width="2" stroke-linecap="round"/>
</g>
<defs>
<clipPath id="clip0_369_1835">
<rect width="104" height="104" fill="white"/>
</clipPath>
</defs>
</svg>
