<svg width="125" height="125" viewBox="0 0 125 125" fill="none" xmlns="http://www.w3.org/2000/svg">
<path d="M61.5489 14.927C61.8483 14.0057 63.1517 14.0057 63.4511 14.9271L66.2045 23.4012C66.3384 23.8132 66.7223 24.0922 67.1555 24.0922L76.0658 24.0922C77.0345 24.0922 77.4373 25.3318 76.6536 25.9012L69.445 31.1385C69.0945 31.3932 68.9479 31.8446 69.0818 32.2566L71.8352 40.7308C72.1345 41.6521 71.0801 42.4182 70.2963 41.8488L63.0878 36.6115C62.7373 36.3568 62.2627 36.3568 61.9122 36.6115L54.7037 41.8488C53.9199 42.4182 52.8655 41.6521 53.1648 40.7307L55.9182 32.2566C56.0521 31.8446 55.9055 31.3932 55.555 31.1385L48.3464 25.9012C47.5627 25.3318 47.9655 24.0922 48.9342 24.0922L57.8445 24.0922C58.2777 24.0922 58.6616 23.8132 58.7955 23.4012L61.5489 14.927Z" fill="white"/>
<path d="M29.5489 37.927C29.8483 37.0057 31.1517 37.0057 31.4511 37.9271L34.2045 46.4012C34.3384 46.8132 34.7223 47.0922 35.1555 47.0922L44.0658 47.0922C45.0345 47.0922 45.4373 48.3318 44.6536 48.9012L37.445 54.1385C37.0945 54.3932 36.9479 54.8446 37.0818 55.2566L39.8352 63.7308C40.1345 64.6521 39.0801 65.4182 38.2963 64.8488L31.0878 59.6115C30.7373 59.3568 30.2627 59.3568 29.9122 59.6115L22.7037 64.8488C21.9199 65.4182 20.8655 64.6521 21.1648 63.7307L23.9182 55.2566C24.0521 54.8446 23.9055 54.3932 23.555 54.1385L16.3464 48.9012C15.5627 48.3318 15.9655 47.0922 16.9342 47.0922L25.8445 47.0922C26.2777 47.0922 26.6616 46.8132 26.7955 46.4012L29.5489 37.927Z" fill="white"/>
<path d="M42.5489 74.927C42.8483 74.0057 44.1517 74.0057 44.4511 74.9271L47.2045 83.4012C47.3384 83.8132 47.7223 84.0922 48.1555 84.0922L57.0658 84.0922C58.0345 84.0922 58.4373 85.3318 57.6536 85.9012L50.445 91.1385C50.0945 91.3932 49.9479 91.8446 50.0818 92.2566L52.8352 100.731C53.1345 101.652 52.0801 102.418 51.2963 101.849L44.0878 96.6115C43.7373 96.3568 43.2627 96.3568 42.9122 96.6115L35.7037 101.849C34.9199 102.418 33.8655 101.652 34.1648 100.731L36.9182 92.2566C37.0521 91.8446 36.9055 91.3932 36.555 91.1385L29.3464 85.9012C28.5627 85.3318 28.9655 84.0922 29.9342 84.0922L38.8445 84.0922C39.2777 84.0922 39.6616 83.8132 39.7955 83.4012L42.5489 74.927Z" fill="white"/>
<path d="M80.5489 74.927C80.8483 74.0057 82.1517 74.0057 82.4511 74.9271L85.2045 83.4012C85.3384 83.8132 85.7223 84.0922 86.1555 84.0922L95.0658 84.0922C96.0345 84.0922 96.4373 85.3318 95.6536 85.9012L88.445 91.1385C88.0945 91.3932 87.9479 91.8446 88.0818 92.2566L90.8352 100.731C91.1345 101.652 90.0801 102.418 89.2963 101.849L82.0878 96.6115C81.7373 96.3568 81.2627 96.3568 80.9122 96.6115L73.7037 101.849C72.9199 102.418 71.8655 101.652 72.1648 100.731L74.9182 92.2566C75.0521 91.8446 74.9055 91.3932 74.555 91.1385L67.3464 85.9012C66.5627 85.3318 66.9655 84.0922 67.9342 84.0922L76.8445 84.0922C77.2777 84.0922 77.6616 83.8132 77.7955 83.4012L80.5489 74.927Z" fill="white"/>
<path d="M93.5489 37.927C93.8483 37.0057 95.1517 37.0057 95.4511 37.9271L98.2045 46.4012C98.3384 46.8132 98.7223 47.0922 99.1555 47.0922L108.066 47.0922C109.035 47.0922 109.437 48.3318 108.654 48.9012L101.445 54.1385C101.095 54.3932 100.948 54.8446 101.082 55.2566L103.835 63.7308C104.135 64.6521 103.08 65.4182 102.296 64.8488L95.0878 59.6115C94.7373 59.3568 94.2627 59.3568 93.9122 59.6115L86.7037 64.8488C85.9199 65.4182 84.8655 64.6521 85.1648 63.7307L87.9182 55.2566C88.0521 54.8446 87.9055 54.3932 87.555 54.1385L80.3464 48.9012C79.5627 48.3318 79.9655 47.0922 80.9342 47.0922L89.8445 47.0922C90.2777 47.0922 90.6616 46.8132 90.7955 46.4012L93.5489 37.927Z" fill="white"/>
</svg>
