<svg width="104" height="104" viewBox="0 0 104 104" fill="none" xmlns="http://www.w3.org/2000/svg">
<path d="M81 92V12C81 9.79086 79.2091 8 77 8H47.5135C46.4109 8 45.3572 8.45516 44.6013 9.25795L24.0878 31.0447C23.3891 31.7868 23 32.7676 23 33.7868V92C23 94.2091 24.7909 96 27 96H77C79.2091 96 81 94.2091 81 92Z" stroke="white" stroke-width="3"/>
<path d="M23 34H43C45.7614 34 48 31.7614 48 29V8" stroke="white" stroke-width="3" stroke-linecap="round"/>
<circle cx="52.0525" cy="65" r="15" stroke="white" stroke-width="2"/>
<circle cx="52.0525" cy="65" r="7" stroke="white" stroke-width="2"/>
<path d="M48.0525 51V44C48.0525 43.4477 48.5002 43 49.0525 43H55.0525C55.6048 43 56.0525 43.4477 56.0525 44V51" stroke="white" stroke-width="2"/>
<path d="M48.0525 79V86C48.0525 86.5523 48.5002 87 49.0525 87H55.0525C55.6048 87 56.0525 86.5523 56.0525 86V79" stroke="white" stroke-width="2"/>
<path d="M37.9282 61.4641L31.866 57.9641C31.3877 57.688 31.2239 57.0764 31.5 56.5981L34.5 51.4019C34.7761 50.9236 35.3877 50.7598 35.866 51.0359L41.9282 54.5359" stroke="white" stroke-width="2"/>
<path d="M62.177 75.4641L68.2392 78.9641C68.7175 79.2403 69.3291 79.0764 69.6052 78.5981L72.6052 73.4019C72.8814 72.9236 72.7175 72.3121 72.2392 72.0359L66.177 68.5359" stroke="white" stroke-width="2"/>
<path d="M62.177 54.5359L68.2392 51.0359C68.7175 50.7597 69.3291 50.9236 69.6052 51.4019L72.6052 56.5981C72.8814 57.0764 72.7175 57.6879 72.2392 57.9641L66.177 61.4641" stroke="white" stroke-width="2"/>
<path d="M37.9282 68.5359L31.866 72.0359C31.3877 72.312 31.2239 72.9236 31.5 73.4019L34.5 78.5981C34.7761 79.0764 35.3877 79.2402 35.866 78.9641L41.9282 75.4641" stroke="white" stroke-width="2"/>
</svg>
