<svg width="125" height="125" viewBox="0 0 125 125" fill="none" xmlns="http://www.w3.org/2000/svg">
<path d="M61.5489 47.927C61.8483 47.0057 63.1517 47.0057 63.4511 47.9271L66.2045 56.4012C66.3384 56.8132 66.7223 57.0922 67.1555 57.0922L76.0658 57.0922C77.0345 57.0922 77.4373 58.3318 76.6536 58.9012L69.445 64.1385C69.0945 64.3932 68.9479 64.8446 69.0818 65.2566L71.8352 73.7308C72.1345 74.6521 71.0801 75.4182 70.2963 74.8488L63.0878 69.6115C62.7373 69.3568 62.2627 69.3568 61.9122 69.6115L54.7037 74.8488C53.9199 75.4182 52.8655 74.6521 53.1648 73.7307L55.9182 65.2566C56.0521 64.8446 55.9055 64.3932 55.555 64.1385L48.3464 58.9012C47.5627 58.3318 47.9655 57.0922 48.9342 57.0922L57.8445 57.0922C58.2777 57.0922 58.6616 56.8132 58.7955 56.4012L61.5489 47.927Z" fill="white"/>
</svg>
