<svg width="100" height="100" viewBox="0 0 100 100" fill="none" xmlns="http://www.w3.org/2000/svg">
<g clip-path="url(#clip0_290_1697)">
<path d="M59.7919 97.5012C53.8181 98.7327 47.67 98.8254 41.67 97.7793L45.108 81.1222C46.703 81.371 48.3369 81.5 50 81.5C65.313 81.5 78.0718 70.5747 80.9108 56.0933L97.7342 58.5844C96.6562 64.5787 94.4579 70.3211 91.2499 75.5087C87.7786 81.1221 83.1982 85.9678 77.7891 89.7494C72.38 93.531 66.2559 96.1687 59.7919 97.5012Z" stroke="white" stroke-width="3"/>
<path d="M12.9216 81.2641C7.65155 75.014 4.05224 67.5396 2.4474 59.5396L19.2174 56.7118C21.4468 66.9879 28.6743 75.3562 38.184 79.2082L32.5646 95.2577C24.9507 92.3245 18.1917 87.5143 12.9216 81.2641Z" stroke="white" stroke-width="3"/>
<path d="M13.9484 17.5572C22.0853 8.51518 33.3228 2.86092 45.4329 1.71546C49.6282 1.31864 53.8642 1.481 57.9681 2.16052L54.6588 18.83C51.3268 18.316 47.9559 18.3633 44.4336 18.9957C29.5727 21.6637 19.0331 34.3471 18.5149 48.8453L1.50962 49.0318C1.74149 37.4041 6.14654 26.2269 13.9484 17.5572Z" stroke="white" stroke-width="3"/>
<path d="M90.0675 22.6714C95.2793 30.3126 98.1915 39.2758 98.4769 48.5H81.465C80.8947 36.3349 73.4242 25.9771 62.8834 21.247L69.09 5.415C77.5738 9.04739 84.8556 15.0302 90.0675 22.6714Z" stroke="white" stroke-width="3"/>
</g>
<defs>
<clipPath id="clip0_290_1697">
<rect width="100" height="100" fill="white"/>
</clipPath>
</defs>
</svg>
