<svg width="104" height="94" viewBox="0 0 104 94" fill="none" xmlns="http://www.w3.org/2000/svg">
<rect x="2" y="2" width="100" height="64" rx="5" stroke="white" stroke-width="3" stroke-linejoin="round"/>
<path d="M59 66V80C68.2276 80 75.875 84.0723 80.6102 87.776C82.5731 89.3114 81.3826 92 78.8905 92H25.1095C22.6174 92 21.4269 89.3114 23.3898 87.776C28.125 84.0723 35.7724 80 45 80V66H59Z" stroke="white" stroke-width="3" stroke-linejoin="round"/>
<rect x="57" y="12" width="35" height="44" rx="4" stroke="white" stroke-width="2"/>
<path d="M62 21H87" stroke="white" stroke-width="2" stroke-linecap="round" stroke-linejoin="round"/>
<path d="M62 30H87" stroke="white" stroke-width="2" stroke-linecap="round" stroke-linejoin="round"/>
<path d="M62 39H87" stroke="white" stroke-width="2" stroke-linecap="round" stroke-linejoin="round"/>
<path d="M62 48H87" stroke="white" stroke-width="2" stroke-linecap="round" stroke-linejoin="round"/>
<path d="M18 55L12 49L18 43" stroke="white" stroke-width="2" stroke-linecap="round" stroke-linejoin="round"/>
<path d="M40 55L46 49L40 43" stroke="white" stroke-width="2" stroke-linecap="round" stroke-linejoin="round"/>
<path d="M26 56L32 42" stroke="white" stroke-width="2" stroke-linecap="round" stroke-linejoin="round"/>
<rect x="11" y="11" width="36" height="26" rx="5" fill="white"/>
<circle cx="19" cy="19" r="4" fill="#3F97E7"/>
<path d="M42.716 35H16.3734C15.3779 35 14.9938 33.7041 15.8284 33.1616L32.2925 22.4599C32.7012 22.1942 33.2418 22.2619 33.5723 22.62L43.4508 33.3217C44.0421 33.9623 43.5878 35 42.716 35Z" fill="#3F97E7"/>
</svg>
