<svg width="104" height="104" viewBox="0 0 104 104" fill="none" xmlns="http://www.w3.org/2000/svg">
<rect x="25" y="25" width="54" height="54" rx="5" stroke="white" stroke-width="3"/>
<rect x="37" y="37" width="30" height="30" rx="5" stroke="white" stroke-width="3"/>
<rect x="34" y="12" width="6" height="18" rx="2" fill="white"/>
<rect x="49" y="12" width="6" height="18" rx="2" fill="white"/>
<rect x="64" y="12" width="6" height="18" rx="2" fill="white"/>
<rect x="34" y="74" width="6" height="18" rx="2" fill="white"/>
<rect x="49" y="74" width="6" height="18" rx="2" fill="white"/>
<rect x="64" y="74" width="6" height="18" rx="2" fill="white"/>
<rect x="30" y="34" width="6" height="18" rx="2" transform="rotate(90 30 34)" fill="white"/>
<rect x="30" y="49" width="6" height="18" rx="2" transform="rotate(90 30 49)" fill="white"/>
<rect x="30" y="64" width="6" height="18" rx="2" transform="rotate(90 30 64)" fill="white"/>
<rect x="92" y="34" width="6" height="18" rx="2" transform="rotate(90 92 34)" fill="white"/>
<rect x="92" y="49" width="6" height="18" rx="2" transform="rotate(90 92 49)" fill="white"/>
<rect x="92" y="64" width="6" height="18" rx="2" transform="rotate(90 92 64)" fill="white"/>
</svg>
