<svg width="104" height="104" viewBox="0 0 104 104" fill="none" xmlns="http://www.w3.org/2000/svg">
<path d="M36.1947 49.1035C33.3586 46.1731 29.3218 44.1379 23.7586 44.1379C13.2069 44.1379 7 54.069 7 63.3793C7 72.6897 15.069 82 23.7586 82H80.2414C91.4138 82 97 75.1724 97 65.2414C97 55.3104 91.4138 47.8621 80.2414 47.8621C76.2936 47.8621 72.9683 49.3147 70.6255 51.5" stroke="white" stroke-width="3" stroke-linecap="round" stroke-linejoin="round"/>
<path d="M73.4065 49.3728C73.2185 44.5179 69.2689 28 52.9309 28C36.3625 28 30.7143 40.7403 30.5883 45.2281" stroke="white" stroke-width="3" stroke-linecap="round" stroke-linejoin="round"/>
<path d="M39.1464 72.3557C34.0522 72.3557 29.9225 68.2466 29.9225 63.1778C29.9225 58.1091 34.0522 54 39.1464 54C48.3703 54 53.9046 72.3557 63.1285 72.3557" stroke="white" stroke-width="1.5" stroke-linecap="round"/>
<path d="M63.1285 71.6057C62.7143 71.6057 62.3785 71.9414 62.3785 72.3557C62.3785 72.7699 62.7143 73.1057 63.1285 73.1057V71.6057ZM71.6024 63.1778C71.6024 67.8288 67.8121 71.6057 63.1285 71.6057V73.1057C68.6334 73.1057 73.1024 68.6644 73.1024 63.1778H71.6024ZM63.1285 54.75C67.8121 54.75 71.6024 58.5268 71.6024 63.1778H73.1024C73.1024 57.6913 68.6334 53.25 63.1285 53.25V54.75ZM39.1464 73.1057C41.7148 73.1057 43.9614 71.8257 45.9826 70.0512C48.0011 68.279 49.8878 65.9291 51.7219 63.6478C53.5773 61.3402 55.3803 59.1012 57.2819 57.4317C59.1809 55.7645 61.085 54.75 63.1285 54.75V53.25C60.5601 53.25 58.3134 54.53 56.2923 56.3045C54.2737 58.0766 52.3871 60.4266 50.5529 62.7079C48.6976 65.0155 46.8946 67.2544 44.993 68.924C43.094 70.5912 41.1899 71.6057 39.1464 71.6057V73.1057Z" fill="white"/>
<path d="M33.3481 66.8L33.9633 70.3876C34.027 70.7587 33.6705 71.0632 33.3115 70.9444L29.8406 69.7963C29.4707 69.674 29.3761 69.1969 29.6717 68.9445L32.5274 66.505C32.8229 66.2525 33.2825 66.4177 33.3481 66.8Z" fill="white" stroke="white" stroke-linecap="round"/>
<path d="M73.9898 61.662L72.3805 64.9264C72.2141 65.264 71.747 65.3013 71.5261 64.9946L69.3899 62.0293C69.1621 61.7131 69.3656 61.2712 69.7532 61.2403L73.4987 60.9413C73.8863 60.9103 74.1613 61.314 73.9898 61.662Z" fill="white" stroke="white" stroke-linecap="round"/>
</svg>
