<svg width="104" height="104" viewBox="0 0 104 104" fill="none" xmlns="http://www.w3.org/2000/svg">
<path d="M89.5171 36.7143V31C89.5171 28.2386 87.2785 26 84.5171 26H12C9.23858 26 7 28.2386 7 31V74.3333C7 77.0948 9.23858 79.3333 12 79.3333H62.4043" stroke="white" stroke-width="3" stroke-linejoin="round"/>
<path d="M62.4044 92.3687C59.8648 91.5331 57.0521 91.0001 54.0347 91.0001V79.3335H42.4823V91.0001C35.3691 91.0001 29.3938 93.9617 25.4526 96.8678C23.4522 98.3428 24.6153 101 27.1008 101H68.2985" stroke="white" stroke-width="3" stroke-linejoin="round"/>
<path d="M82.0909 36.7142V36.7142C82.0909 34.9391 80.6518 33.5 78.8767 33.5H56.5596C53.7981 33.5 51.5596 35.7386 51.5596 38.5V66.8333C51.5596 69.5948 53.7982 71.8333 56.5596 71.8333H62.4046" stroke="white" stroke-width="1.5"/>
<path d="M56.51 41.9524H62.4041" stroke="white" stroke-width="1.5" stroke-linecap="round" stroke-linejoin="round"/>
<path d="M56.51 49.0953H62.4041" stroke="white" stroke-width="1.5" stroke-linecap="round" stroke-linejoin="round"/>
<path d="M56.51 56.2382H62.4041" stroke="white" stroke-width="1.5" stroke-linecap="round" stroke-linejoin="round"/>
<path d="M56.51 63.381H62.4041" stroke="white" stroke-width="1.5" stroke-linecap="round" stroke-linejoin="round"/>
<path d="M20.2027 70.1666L15.2517 65.1666L20.2027 60.1666" stroke="white" stroke-width="2" stroke-linecap="round" stroke-linejoin="round"/>
<path d="M38.3566 70.1666L43.3076 65.1666L38.3566 60.1666" stroke="white" stroke-width="2" stroke-linecap="round" stroke-linejoin="round"/>
<path d="M26.8044 71L31.7555 59.3334" stroke="white" stroke-width="2" stroke-linecap="round" stroke-linejoin="round"/>
<path fill-rule="evenodd" clip-rule="evenodd" d="M14.4265 38.5C14.4265 35.7386 16.6651 33.5 19.4265 33.5H39.1327C41.8941 33.5 44.1327 35.7386 44.1327 38.5V50.1667C44.1327 52.9281 41.8941 55.1667 39.1327 55.1667H19.4265C16.6651 55.1667 14.4265 52.9281 14.4265 50.1667V38.5ZM24.3287 40.1666C24.3287 42.0075 22.8509 43.4999 21.028 43.4999C19.2051 43.4999 17.7273 42.0075 17.7273 40.1666C17.7273 38.3256 19.2051 36.8333 21.028 36.8333C22.8509 36.8333 24.3287 38.3256 24.3287 40.1666ZM19.4223 53.4999H40.2133C41.0827 53.4999 41.538 52.467 40.9514 51.8252L33.1548 43.2954C32.8236 42.933 32.2783 42.8647 31.8679 43.1341L18.8736 51.6639C18.0434 52.2089 18.4292 53.4999 19.4223 53.4999Z" fill="white"/>
<rect x="62.4045" y="36.7144" width="34.5957" height="64.2857" rx="5" stroke="white" stroke-width="3"/>
<rect x="66.5557" y="43.0032" width="26.2927" height="8.38509" rx="1" stroke="white" stroke-width="1.25"/>
<rect x="66.5557" y="57.677" width="26.2927" height="8.38509" rx="1" stroke="white" stroke-width="1.25"/>
<rect x="66.5557" y="71.652" width="26.2927" height="8.38509" rx="1" stroke="white" stroke-width="1.25"/>
<rect x="66.5557" y="86.3262" width="26.2927" height="8.38509" rx="1" stroke="white" stroke-width="1.25"/>
<path d="M85.9297 43.0032V51.3883" stroke="white" stroke-width="1.25" stroke-linecap="round"/>
<path d="M85.9297 57.677V66.0621" stroke="white" stroke-width="1.25" stroke-linecap="round"/>
<path d="M85.9297 71.652V80.0371" stroke="white" stroke-width="1.25" stroke-linecap="round"/>
<path d="M85.9297 86.3262V94.7113" stroke="white" stroke-width="1.25" stroke-linecap="round"/>
<ellipse cx="70.7073" cy="47.1957" rx="1.38383" ry="1.39752" fill="white"/>
<ellipse cx="70.7073" cy="61.8696" rx="1.38383" ry="1.39752" fill="white"/>
<ellipse cx="70.7073" cy="75.8448" rx="1.38383" ry="1.39752" fill="white"/>
<ellipse cx="70.7073" cy="90.5187" rx="1.38383" ry="1.39752" fill="white"/>
<path d="M74.8589 47.1957H77.6265" stroke="white" stroke-width="1.25" stroke-linecap="round"/>
<path d="M74.8589 61.8698H77.6265" stroke="white" stroke-width="1.25" stroke-linecap="round"/>
<path d="M74.8589 75.8446H77.6265" stroke="white" stroke-width="1.25" stroke-linecap="round"/>
<path d="M74.8589 90.5187H77.6265" stroke="white" stroke-width="1.25" stroke-linecap="round"/>
<path d="M80.394 47.1957H83.1617" stroke="white" stroke-width="1.25" stroke-linecap="round"/>
<path d="M80.394 61.8698H83.1617" stroke="white" stroke-width="1.25" stroke-linecap="round"/>
<path d="M80.394 75.8446H83.1617" stroke="white" stroke-width="1.25" stroke-linecap="round"/>
<path d="M80.394 90.5187H83.1617" stroke="white" stroke-width="1.25" stroke-linecap="round"/>
</svg>
