<svg width="104" height="104" viewBox="0 0 104 104" fill="none" xmlns="http://www.w3.org/2000/svg">
<path d="M33.4086 30.8072C38.1677 29.2418 44.2747 28.3512 52 28C59.7253 28.3512 65.8323 29.2418 70.5914 30.8072C71.7567 31.1905 72.4687 32.3126 72.694 33.5184C73.4922 37.7903 76.644 42.118 80.1122 43.7849C81.6055 44.5027 83.0059 45.8298 82.9611 47.4861C82.6263 59.8662 79.5608 90.6447 53.4416 99.5386C52.5154 99.854 51.4846 99.854 50.5584 99.5386C24.4392 90.6447 21.3737 59.8662 21.0389 47.4861C20.9941 45.8298 22.3945 44.5027 23.8878 43.7849C27.356 42.118 30.5078 37.7903 31.306 33.5184C31.5313 32.3126 32.2433 31.1905 33.4086 30.8072Z" stroke="white" stroke-width="3" stroke-linejoin="round"/>
<path d="M60.3396 54.9762C60.3396 60.762 55.7035 67.2586 51.9947 67.2586C48.2859 67.2586 43.6499 60.762 43.6499 54.9762C43.6499 49.1903 45.2146 44.5 51.9947 44.5C58.7749 44.5 60.3396 49.1903 60.3396 54.9762Z" stroke="white" stroke-width="2" stroke-linecap="round" stroke-linejoin="round"/>
<path d="M48.3311 65.5V69.3804C48.3311 70.2881 47.7198 71.082 46.8423 71.314L39.1387 73.3508C38.2612 73.5828 37.6499 74.3766 37.6499 75.2843V77.5C37.6499 78.6046 38.5453 79.5 39.6499 79.5H64.3457C65.4503 79.5 66.3457 78.6046 66.3457 77.5V75.2843C66.3457 74.3766 65.7344 73.5827 64.8569 73.3507L57.1533 71.314C56.2758 71.082 55.6645 70.2881 55.6645 69.3804V65.5" stroke="white" stroke-width="2" stroke-linecap="round" stroke-linejoin="round"/>
</svg>
