<svg width="125" height="125" viewBox="0 0 125 125" fill="none" xmlns="http://www.w3.org/2000/svg">
<path d="M61.5489 14.927C61.8483 14.0057 63.1517 14.0057 63.4511 14.9271L66.2045 23.4012C66.3384 23.8132 66.7223 24.0922 67.1555 24.0922L76.0658 24.0922C77.0345 24.0922 77.4373 25.3318 76.6536 25.9012L69.445 31.1385C69.0945 31.3932 68.9479 31.8446 69.0818 32.2566L71.8352 40.7308C72.1345 41.6521 71.0801 42.4182 70.2963 41.8488L63.0878 36.6115C62.7373 36.3568 62.2627 36.3568 61.9122 36.6115L54.7037 41.8488C53.9199 42.4182 52.8655 41.6521 53.1648 40.7307L55.9182 32.2566C56.0521 31.8446 55.9055 31.3932 55.555 31.1385L48.3464 25.9012C47.5627 25.3318 47.9655 24.0922 48.9342 24.0922L57.8445 24.0922C58.2777 24.0922 58.6616 23.8132 58.7955 23.4012L61.5489 14.927Z" fill="white"/>
<path d="M28.5489 47.927C28.8483 47.0057 30.1517 47.0057 30.4511 47.9271L33.2045 56.4012C33.3384 56.8132 33.7223 57.0922 34.1555 57.0922L43.0658 57.0922C44.0345 57.0922 44.4373 58.3318 43.6536 58.9012L36.445 64.1385C36.0945 64.3932 35.9479 64.8446 36.0818 65.2566L38.8352 73.7308C39.1345 74.6521 38.0801 75.4182 37.2963 74.8488L30.0878 69.6115C29.7373 69.3568 29.2627 69.3568 28.9122 69.6115L21.7037 74.8488C20.9199 75.4182 19.8655 74.6521 20.1648 73.7307L22.9182 65.2566C23.0521 64.8446 22.9055 64.3932 22.555 64.1385L15.3464 58.9012C14.5627 58.3318 14.9655 57.0922 15.9342 57.0922L24.8445 57.0922C25.2777 57.0922 25.6616 56.8132 25.7955 56.4012L28.5489 47.927Z" fill="white"/>
<path d="M61.5489 80.927C61.8483 80.0057 63.1517 80.0057 63.4511 80.9271L66.2045 89.4012C66.3384 89.8132 66.7223 90.0922 67.1555 90.0922L76.0658 90.0922C77.0345 90.0922 77.4373 91.3318 76.6536 91.9012L69.445 97.1385C69.0945 97.3932 68.9479 97.8446 69.0818 98.2566L71.8352 106.731C72.1345 107.652 71.0801 108.418 70.2963 107.849L63.0878 102.611C62.7373 102.357 62.2627 102.357 61.9122 102.611L54.7037 107.849C53.9199 108.418 52.8655 107.652 53.1648 106.731L55.9182 98.2566C56.0521 97.8446 55.9055 97.3932 55.555 97.1385L48.3464 91.9012C47.5627 91.3318 47.9655 90.0922 48.9342 90.0922L57.8445 90.0922C58.2777 90.0922 58.6616 89.8132 58.7955 89.4012L61.5489 80.927Z" fill="white"/>
<path d="M94.5489 47.927C94.8483 47.0057 96.1517 47.0057 96.4511 47.9271L99.2045 56.4012C99.3384 56.8132 99.7223 57.0922 100.156 57.0922L109.066 57.0922C110.035 57.0922 110.437 58.3318 109.654 58.9012L102.445 64.1385C102.095 64.3932 101.948 64.8446 102.082 65.2566L104.835 73.7308C105.135 74.6521 104.08 75.4182 103.296 74.8488L96.0878 69.6115C95.7373 69.3568 95.2627 69.3568 94.9122 69.6115L87.7037 74.8488C86.9199 75.4182 85.8655 74.6521 86.1648 73.7307L88.9182 65.2566C89.0521 64.8446 88.9055 64.3932 88.555 64.1385L81.3464 58.9012C80.5627 58.3318 80.9655 57.0922 81.9342 57.0922L90.8445 57.0922C91.2777 57.0922 91.6616 56.8132 91.7955 56.4012L94.5489 47.927Z" fill="white"/>
</svg>
