<svg width="104" height="104" viewBox="0 0 104 104" fill="none" xmlns="http://www.w3.org/2000/svg">
<rect x="22" y="12" width="60" height="90" rx="5" stroke="white" stroke-width="3"/>
<circle cx="35" cy="27" r="7" stroke="white" stroke-width="1.5"/>
<path d="M30.5 27.5L34.4555 31.016C34.7178 31.2492 35.1326 31.1465 35.2558 30.8178L38 23.5" stroke="white" stroke-width="1.5" stroke-linecap="round"/>
<rect x="46" y="23" width="30" height="6" rx="2" stroke="white" stroke-width="1.5"/>
<circle cx="35" cy="47" r="7" stroke="white" stroke-width="1.5"/>
<path d="M30.5 47.5L34.4555 51.016C34.7178 51.2492 35.1326 51.1465 35.2558 50.8178L38 43.5" stroke="white" stroke-width="1.5" stroke-linecap="round"/>
<rect x="46" y="43" width="30" height="6" rx="2" stroke="white" stroke-width="1.5"/>
<circle cx="35" cy="67" r="7" stroke="white" stroke-width="1.5"/>
<rect x="46" y="63" width="30" height="6" rx="2" stroke="white" stroke-width="1.5"/>
<path d="M38 64L32 70" stroke="white" stroke-width="1.5" stroke-linecap="round"/>
<path d="M38 70L32 64" stroke="white" stroke-width="1.5" stroke-linecap="round"/>
<circle cx="35" cy="87" r="7" stroke="white" stroke-width="1.5"/>
<path d="M30.5 87.5L34.4555 91.016C34.7178 91.2492 35.1326 91.1465 35.2558 90.8178L38 83.5" stroke="white" stroke-width="1.5" stroke-linecap="round"/>
<rect x="46" y="83" width="30" height="6" rx="2" stroke="white" stroke-width="1.5"/>
</svg>
